<?xml version="1.0" encoding="iso-8859-1"?>
<!-- Generator: Adobe Illustrator 19.0.0, SVG Export Plug-In . SVG Version: 6.00 Build 0)  -->
<svg version="1.1" id="Layer_1" xmlns="http://www.w3.org/2000/svg" xmlns:xlink="http://www.w3.org/1999/xlink" x="0px" y="0px"
	 viewBox="0 0 512 512" height="70px" style="enable-background:new 0 0 512 512;" xml:space="preserve">
<circle style="fill:#3C5D76;" cx="256" cy="256" r="147.394"/>
<path style="fill:#1E2E3B;" d="M256,108.606c81.403,0,147.394,65.991,147.394,147.394S337.403,403.394,256,403.394"/>
<path style="fill:#BFE4F8;" d="M256,512C114.842,512,0,397.158,0,256S114.842,0,256,0s256,114.842,256,256S397.158,512,256,512z
	 M256,46.545C140.505,46.545,46.545,140.507,46.545,256S140.505,465.455,256,465.455S465.455,371.493,465.455,256
	S371.493,46.545,256,46.545z"/>
<path style="fill:#93C7EF;" d="M256,512v-46.545c115.493,0,209.455-93.961,209.455-209.455S371.493,46.545,256,46.545V0
	c141.158,0,256,114.842,256,256S397.158,512,256,512z"/>
<circle style="fill:#1E2E3B;" cx="420.6" cy="420.6" r="23.273"/>
<circle style="fill:#3C5D76;" cx="91.404" cy="91.404" r="23.273"/>
<circle style="fill:#1E2E3B;" cx="420.6" cy="91.404" r="23.273"/>
<circle style="fill:#3C5D76;" cx="91.404" cy="420.6" r="23.273"/>
<rect x="116.364" y="232.727" style="fill:#5A8BB0;" width="93.091" height="46.545"/>
<g>
	<rect x="271.515" y="186.182" style="fill:#3C5D76;" width="124.121" height="46.545"/>
	<rect x="302.545" y="279.273" style="fill:#3C5D76;" width="77.576" height="46.545"/>
</g>
<path style="fill:#BFE4F8;" d="M256,139.636c64.163,0,116.364,52.201,116.364,116.364S320.163,372.364,256,372.364
	S139.636,320.163,139.636,256S191.837,139.636,256,139.636 M256,93.091c-89.972,0-162.909,72.937-162.909,162.909
	S166.028,418.909,256,418.909S418.909,345.972,418.909,256S345.972,93.091,256,93.091L256,93.091z"/>
<path style="fill:#93C7EF;" d="M256,93.091v46.545c64.163,0,116.364,52.201,116.364,116.364S320.163,372.364,256,372.364v46.545
	c89.972,0,162.909-72.937,162.909-162.909S345.972,93.091,256,93.091z"/>
<g>
</g>
<g>
</g>
<g>
</g>
<g>
</g>
<g>
</g>
<g>
</g>
<g>
</g>
<g>
</g>
<g>
</g>
<g>
</g>
<g>
</g>
<g>
</g>
<g>
</g>
<g>
</g>
<g>
</g>
</svg>
